<svg xmlns="http://www.w3.org/2000/svg" viewBox="0 0 512 512" width="512" height="512">
<defs>
<linearGradient id="bg" x1="0%" y1="0%" x2="100%" y2="100%"><stop offset="0%" stop-color="#0c0f1a"/><stop offset="50%" stop-color="#111832"/><stop offset="100%" stop-color="#0a1628"/></linearGradient>
<linearGradient id="ac" x1="0%" y1="0%" x2="100%" y2="100%"><stop offset="0%" stop-color="#00d4ff"/><stop offset="100%" stop-color="#7c5cfc"/></linearGradient>
<linearGradient id="sp" x1="0%" y1="0%" x2="100%" y2="100%"><stop offset="0%" stop-color="#ffd700"/><stop offset="100%" stop-color="#ff6b35"/></linearGradient>
<linearGradient id="db" x1="0%" y1="0%" x2="0%" y2="100%"><stop offset="0%" stop-color="#5eead4"/><stop offset="50%" stop-color="#22d3ee"/><stop offset="100%" stop-color="#818cf8"/></linearGradient>
<filter id="gl"><feGaussianBlur stdDeviation="6" result="b"/><feComposite in="SourceGraphic" in2="b" operator="over"/></filter>
<filter id="gl2"><feGaussianBlur stdDeviation="10" result="b"/><feComposite in="SourceGraphic" in2="b" operator="over"/></filter>
</defs>
<rect x="16" y="16" width="480" height="480" rx="100" fill="url(#bg)"/>
<rect x="16" y="16" width="480" height="480" rx="100" fill="none" stroke="#fff" stroke-opacity="0.06" stroke-width="1.5"/>
<g opacity="0.03" stroke="#fff" stroke-width="0.8"><line x1="128" y1="40" x2="128" y2="472"/><line x1="256" y1="40" x2="256" y2="472"/><line x1="384" y1="40" x2="384" y2="472"/><line x1="40" y1="170" x2="472" y2="170"/><line x1="40" y1="280" x2="472" y2="280"/><line x1="40" y1="390" x2="472" y2="390"/></g>
<g transform="translate(256, 268)">
<ellipse cx="0" cy="10" rx="110" ry="90" fill="#22d3ee" opacity="0.05" filter="url(#gl2)"/>
<line x1="-88" y1="-48" x2="-88" y2="62" stroke="url(#ac)" stroke-width="2.8" opacity="0.7"/>
<line x1="88" y1="-48" x2="88" y2="62" stroke="url(#ac)" stroke-width="2.8" opacity="0.7"/>
<rect x="-88" y="-48" width="176" height="110" fill="url(#db)" opacity="0.08"/>
<ellipse cx="0" cy="62" rx="88" ry="26" fill="url(#db)" opacity="0.08" stroke="url(#ac)" stroke-width="2.5" stroke-opacity="0.5"/>
<ellipse cx="0" cy="7" rx="88" ry="26" fill="none" stroke="url(#ac)" stroke-width="2" stroke-opacity="0.3"/>
<ellipse cx="0" cy="-48" rx="88" ry="26" fill="url(#db)" opacity="0.18" stroke="url(#ac)" stroke-width="2.8"/>
<g opacity="0.4">
<rect x="-58" y="-30" width="38" height="3.5" rx="2" fill="#5eead4"/><rect x="-12" y="-30" width="24" height="3.5" rx="2" fill="#818cf8"/><rect x="20" y="-30" width="34" height="3.5" rx="2" fill="#22d3ee"/>
<rect x="-58" y="-19" width="28" height="3.5" rx="2" fill="#22d3ee"/><rect x="-22" y="-19" width="42" height="3.5" rx="2" fill="#5eead4"/><rect x="28" y="-19" width="26" height="3.5" rx="2" fill="#818cf8"/>
<rect x="-58" y="18" width="34" height="3.5" rx="2" fill="#818cf8"/><rect x="-16" y="18" width="26" height="3.5" rx="2" fill="#5eead4"/><rect x="18" y="18" width="38" height="3.5" rx="2" fill="#22d3ee"/>
<rect x="-58" y="29" width="24" height="3.5" rx="2" fill="#22d3ee"/><rect x="-26" y="29" width="36" height="3.5" rx="2" fill="#818cf8"/><rect x="18" y="29" width="28" height="3.5" rx="2" fill="#5eead4"/>
</g>
</g>
<g fill="url(#ac)" opacity="0.45" font-family="monospace" font-weight="700" font-size="58"><text x="98" y="308">{</text><text x="372" y="308">}</text></g>
<g transform="translate(372, 138)" filter="url(#gl)"><path d="M0,-30 C2.5,-9 9,-2.5 30,0 C9,2.5 2.5,9 0,30 C-2.5,9 -9,2.5 -30,0 C-9,-2.5 -2.5,-9 0,-30Z" fill="url(#sp)" opacity="0.95"/><circle cx="0" cy="0" r="5" fill="#fff" opacity="0.9"/></g>
<g transform="translate(122, 165)" filter="url(#gl)"><path d="M0,-15 C1.5,-4.5 4.5,-1.5 15,0 C4.5,1.5 1.5,4.5 0,15 C-1.5,4.5 -4.5,1.5 -15,0 C-4.5,-1.5 -1.5,-4.5 0,-15Z" fill="#5eead4" opacity="0.65"/><circle cx="0" cy="0" r="2.5" fill="#fff" opacity="0.8"/></g>
<g transform="translate(355, 392)" filter="url(#gl)"><path d="M0,-12 C1.2,-3.6 3.6,-1.2 12,0 C3.6,1.2 1.2,3.6 0,12 C-1.2,3.6 -3.6,1.2 -12,0 C-3.6,-1.2 -1.2,-3.6 0,-12Z" fill="#818cf8" opacity="0.55"/><circle cx="0" cy="0" r="2" fill="#fff" opacity="0.7"/></g>
<ellipse cx="256" cy="268" rx="138" ry="42" fill="none" stroke="url(#ac)" stroke-width="1.2" opacity="0.12" stroke-dasharray="7,5" transform="rotate(-12, 256, 268)"/>
<circle cx="140" cy="248" r="2.5" fill="#22d3ee" opacity="0.4"/><circle cx="380" cy="285" r="2" fill="#818cf8" opacity="0.35"/>
</svg>